<?xml version="1.0" standalone="no"?>
<!DOCTYPE svg PUBLIC "-//W3C//DTD SVG 20010904//EN"
 "http://www.w3.org/TR/2001/REC-SVG-20010904/DTD/svg10.dtd">
<svg version="1.0" xmlns="http://www.w3.org/2000/svg"
 width="50" height="50" viewBox="0 0 1000.000000 1000.000000"
 preserveAspectRatio="xMidYMid meet">

<g transform="translate(0.000000,1000.000000) scale(0.100000,-0.100000)"
fill="#45DEB8" stroke="none">
<path d="M4785 9443 c-457 -19 -973 -131 -1416 -305 -151 -59 -180 -83 -187
-157 -8 -87 37 -152 116 -166 33 -5 62 3 179 49 328 129 663 213 1048 263 111
14 210 18 475 18 377 -1 521 -14 844 -81 944 -197 1796 -723 2405 -1484 l60
-75 -254 -5 c-236 -5 -255 -6 -281 -26 -50 -37 -69 -72 -69 -124 0 -52 19 -87
69 -124 27 -20 39 -21 414 -21 l387 0 50 25 c63 31 114 82 145 145 l25 50 0
387 c0 375 -1 387 -21 414 -37 50 -72 69 -124 69 -52 0 -87 -19 -124 -69 -19
-25 -21 -45 -26 -252 l-5 -225 -85 103 c-296 358 -696 700 -1112 951 -759 459
-1621 678 -2513 640z"/>
<path d="M1795 8786 c-98 -43 -122 -167 -47 -239 45 -43 71 -47 300 -47 206 0
215 -1 192 -17 -57 -39 -214 -176 -334 -293 -722 -702 -1182 -1618 -1315
-2616 -86 -651 -24 -1330 181 -1953 62 -189 133 -369 156 -394 60 -66 175 -62
230 8 42 53 38 90 -22 242 -129 328 -213 663 -263 1048 -14 111 -18 210 -18
475 1 377 14 521 81 844 197 944 723 1796 1484 2405 l75 60 5 -254 c5 -236 6
-255 26 -281 37 -50 72 -69 124 -69 52 0 87 19 124 69 20 27 21 39 21 414 l0
387 -25 50 c-31 63 -82 114 -145 145 l-50 25 -375 2 c-298 2 -381 0 -405 -11z"/>
<path d="M4435 7791 c-89 -22 -164 -83 -205 -166 -24 -49 -25 -57 -28 -317 -2
-175 -7 -268 -14 -268 -5 0 -65 -26 -132 -58 -131 -63 -253 -136 -357 -213
-37 -27 -70 -49 -74 -49 -4 0 -101 53 -214 119 -113 65 -224 124 -246 130
-103 28 -201 3 -279 -72 -45 -43 -97 -127 -306 -490 -138 -241 -260 -457 -271
-480 -42 -93 -14 -239 60 -313 22 -21 133 -93 248 -159 186 -108 208 -123 206
-145 -1 -14 -6 -89 -13 -167 -10 -127 -6 -270 13 -457 2 -15 -43 -45 -206
-140 -115 -67 -226 -139 -247 -160 -75 -74 -103 -219 -61 -313 11 -23 133
-239 271 -480 209 -363 261 -447 306 -490 78 -75 176 -100 279 -72 22 6 133
65 246 130 113 66 211 119 216 119 6 0 28 -14 49 -31 112 -91 345 -224 476
-274 l47 -17 3 -267 c3 -259 4 -267 28 -316 31 -63 82 -114 145 -145 l50 -25
575 0 575 0 50 25 c63 31 114 82 145 145 24 49 25 57 28 318 2 174 7 267 14
267 5 0 65 26 132 58 131 63 253 136 357 213 37 27 70 49 74 49 4 0 101 -53
214 -119 113 -65 224 -124 246 -130 103 -28 201 -3 279 72 45 43 97 127 311
500 142 246 264 467 272 490 20 57 13 169 -14 222 -35 68 -84 105 -300 230
-186 108 -208 123 -206 145 1 14 6 89 13 167 10 127 6 270 -13 457 -2 15 43
45 206 140 216 126 265 163 300 231 31 60 35 178 9 237 -11 25 -133 243 -272
484 -209 364 -261 448 -306 491 -78 75 -176 100 -279 72 -22 -6 -129 -63 -237
-125 -109 -63 -204 -117 -213 -120 -9 -4 -42 14 -82 44 -142 104 -326 208
-455 257 l-47 17 -3 267 c-3 259 -4 267 -28 316 -31 63 -82 114 -145 145 l-50
25 -555 2 c-305 1 -568 -2 -585 -6z m1065 -619 l0 -329 113 -43 c260 -99 395
-175 609 -346 65 -52 120 -94 123 -94 3 0 132 73 286 161 158 91 284 158 289
153 14 -15 490 -843 490 -853 0 -5 -126 -82 -280 -171 -154 -89 -280 -164
-280 -167 0 -2 10 -64 22 -136 31 -188 31 -506 0 -694 -12 -72 -22 -134 -22
-136 0 -3 126 -78 281 -167 213 -124 280 -167 276 -179 -2 -9 -113 -203 -245
-431 -153 -263 -246 -415 -255 -414 -8 1 -137 72 -286 158 -164 95 -276 154
-284 149 -6 -4 -57 -43 -112 -87 -197 -157 -385 -263 -622 -352 l-103 -39 0
-327 0 -328 -500 0 -500 0 0 328 0 329 -112 43 c-258 98 -398 177 -605 342
-68 54 -125 98 -129 98 -3 0 -127 -70 -276 -156 -149 -86 -277 -157 -285 -158
-9 -1 -104 153 -255 414 -132 228 -243 422 -245 431 -4 12 63 55 276 179 155
89 281 164 281 167 0 2 -10 64 -22 136 -31 188 -31 506 0 694 12 72 22 134 22
136 0 3 -126 78 -281 167 -213 124 -280 167 -276 179 2 9 113 203 245 431 153
263 246 415 255 414 8 -1 137 -72 286 -158 164 -95 276 -154 284 -149 6 4 57
43 112 87 197 157 367 254 598 342 l127 49 0 327 0 328 500 0 500 0 0 -328z"/>
<path d="M4872 5990 c-251 -35 -494 -172 -647 -363 -82 -103 -157 -252 -191
-382 -23 -86 -27 -120 -27 -245 0 -125 4 -159 27 -245 34 -130 109 -279 191
-382 127 -159 324 -285 530 -339 86 -23 120 -27 245 -27 125 0 159 4 245 27
355 93 628 366 721 721 23 86 27 120 27 245 0 125 -4 159 -27 245 -113 429
-484 731 -924 749 -59 3 -135 1 -170 -4z m338 -320 c227 -76 385 -236 462
-466 19 -59 23 -89 23 -204 0 -115 -4 -145 -23 -204 -78 -232 -236 -391 -467
-468 -60 -20 -90 -23 -205 -23 -115 0 -145 3 -205 23 -231 77 -389 236 -467
468 -19 59 -23 89 -23 204 0 115 3 145 23 205 77 229 241 394 463 464 92 29
101 30 234 26 90 -2 136 -8 185 -25z"/>
<path d="M8883 6801 c-39 -25 -60 -55 -68 -102 -5 -29 4 -61 49 -175 130 -332
216 -674 263 -1054 14 -114 18 -216 18 -475 -1 -371 -15 -519 -81 -839 -197
-944 -723 -1796 -1484 -2405 l-75 -60 -5 254 c-5 236 -6 255 -26 281 -37 50
-72 69 -124 69 -52 0 -87 -19 -124 -69 -20 -27 -21 -39 -21 -414 l0 -387 25
-50 c31 -63 82 -114 145 -145 l50 -25 387 0 c375 0 387 1 414 21 50 37 69 72
69 124 0 52 -19 87 -69 124 -25 19 -45 21 -252 26 l-225 5 103 85 c358 296
700 696 951 1112 720 1191 843 2638 335 3929 -61 157 -83 181 -165 186 -45 3
-65 0 -90 -16z"/>
<path d="M1435 2791 c-89 -22 -164 -83 -205 -166 l-25 -50 0 -387 c0 -375 1
-387 21 -414 37 -50 72 -69 124 -69 52 0 87 19 124 69 19 25 21 45 26 252 l5
225 85 -103 c296 -358 696 -700 1112 -951 1191 -720 2638 -843 3929 -335 151
59 180 83 187 157 8 87 -37 152 -116 166 -33 5 -62 -3 -179 -49 -331 -130
-673 -216 -1053 -263 -114 -14 -216 -18 -475 -18 -371 1 -519 15 -839 81 -944
197 -1796 723 -2405 1484 l-60 75 254 5 c236 5 255 6 281 26 50 37 69 72 69
124 0 52 -19 87 -69 124 -26 20 -41 21 -394 23 -202 1 -380 -2 -397 -6z"/>
</g>
</svg>
