<svg id="svg" version="1.1" xmlns="http://www.w3.org/2000/svg" xmlns:xlink="http://www.w3.org/1999/xlink" width="60" height="60" viewBox="0, 0, 400,400"><g id="svgg"><path id="path0" d="M233.204 31.795 C 161.843 44.799,164.446 44.282,161.276 46.081 C 154.048 50.183,151.937 55.078,151.983 67.631 L 152.014 76.000 148.020 76.000 L 144.026 76.000 143.913 60.100 C 143.778 41.084,143.523 40.148,137.681 37.161 L 135.800 36.200 84.000 36.200 L 32.200 36.200 30.400 37.135 C 26.860 38.974,24.635 42.055,24.078 45.888 C 23.925 46.940,23.890 120.700,24.000 209.800 L 24.200 371.800 25.135 373.600 C 26.381 375.999,28.037 377.672,30.319 378.839 L 32.200 379.800 200.000 379.800 L 367.800 379.800 369.681 378.839 C 371.963 377.672,373.619 375.999,374.865 373.600 L 375.800 371.800 375.800 228.000 L 375.800 84.200 374.839 82.319 C 373.672 80.037,371.999 78.381,369.600 77.135 L 367.800 76.200 265.857 76.098 L 163.914 75.995 164.073 68.498 C 164.249 60.198,164.485 59.276,166.900 57.467 C 168.670 56.140,162.635 57.324,235.556 44.005 C 286.024 34.788,301.619 31.806,302.628 31.183 C 307.011 28.474,306.071 20.219,301.331 19.795 C 300.471 19.718,270.628 24.975,233.204 31.795 M132.000 62.000 L 132.000 76.000 84.000 76.000 L 36.000 76.000 36.000 62.000 L 36.000 48.000 84.000 48.000 L 132.000 48.000 132.000 62.000 M364.000 228.000 L 364.000 368.000 354.000 368.000 L 344.000 368.000 344.000 292.000 L 344.000 216.000 196.000 216.000 L 48.000 216.000 48.000 292.000 L 48.000 368.000 42.000 368.000 L 36.000 368.000 36.000 228.000 L 36.000 88.000 200.000 88.000 L 364.000 88.000 364.000 228.000 M132.000 146.000 L 132.000 180.000 198.000 180.000 L 264.000 180.000 264.000 146.000 L 264.000 112.000 198.000 112.000 L 132.000 112.000 132.000 146.000 M252.000 146.000 L 252.000 168.000 198.000 168.000 L 144.000 168.000 144.000 146.000 L 144.000 124.000 198.000 124.000 L 252.000 124.000 252.000 146.000 M332.000 272.000 L 332.000 316.000 196.000 316.000 L 60.000 316.000 60.000 272.000 L 60.000 228.000 196.000 228.000 L 332.000 228.000 332.000 272.000 M172.000 258.000 L 172.000 264.000 196.000 264.000 L 220.000 264.000 220.000 258.000 L 220.000 252.000 196.000 252.000 L 172.000 252.000 172.000 258.000 M332.000 348.000 L 332.000 368.000 196.000 368.000 L 60.000 368.000 60.000 348.000 L 60.000 328.000 196.000 328.000 L 332.000 328.000 332.000 348.000 " stroke="none" fill="#585F5E" fill-rule="evenodd"></path><path id="path1" d="" stroke="none" fill="#585F5E" fill-rule="evenodd"></path><path id="path2" d="" stroke="none" fill="#585F5E" fill-rule="evenodd"></path><path id="path3" d="" stroke="none" fill="#585F5E" fill-rule="evenodd"></path><path id="path4" d="" stroke="none" fill="#585F5E" fill-rule="evenodd"></path></g></svg>