<svg width="42" height="42" viewBox="0 0 42 42" fill="none" xmlns="http://www.w3.org/2000/svg">
<path d="M21 0C9.4164 0 0 9.4164 0 21C0 32.5836 9.4164 42 21 42C32.5836 42 42 32.5836 42 21C42 9.4164 32.5836 0 21 0ZM21 40.32C10.3488 40.32 1.68 31.6512 1.68 21C1.68 10.3488 10.3488 1.68 21 1.68C31.6512 1.68 40.32 10.3488 40.32 21C40.32 31.6512 31.6512 40.32 21 40.32Z" fill="#45DEB8"/>
<path d="M32.8019 9.19788C32.7851 9.18108 32.7683 9.18108 32.7599 9.17268C29.7359 6.17388 25.5863 4.30908 20.9999 4.30908C16.4135 4.30908 12.2555 6.16548 9.23991 9.17268C9.22311 9.18108 9.20631 9.18948 9.19791 9.19788C9.18951 9.20628 9.18111 9.23148 9.17271 9.23988C6.17391 12.2639 4.30911 16.4135 4.30911 20.9999C4.30911 25.4183 6.02271 29.5763 9.12231 32.7179C9.14751 32.7431 9.17271 32.7767 9.19791 32.8019C9.36591 32.9699 9.57591 33.0455 9.79431 33.0455C10.0127 33.0455 10.2227 32.9615 10.3907 32.8019C10.3907 32.8019 10.3907 32.8019 10.3991 32.7935L12.0035 31.1891C12.3311 30.8615 12.3311 30.3323 12.0035 30.0047C11.6759 29.6771 11.1467 29.6771 10.8191 30.0047L9.82791 30.9959C7.54311 28.4423 6.22431 25.2419 6.03951 21.8315H7.43391C7.89591 21.8315 8.27391 21.4535 8.27391 20.9915C8.27391 20.5295 7.89591 20.1515 7.43391 20.1515H6.03951C6.23271 16.6487 7.63551 13.4651 9.83631 11.0039L10.8191 11.9867C10.9871 12.1547 11.1971 12.2303 11.4155 12.2303C11.6339 12.2303 11.8439 12.1463 12.0119 11.9867C12.3395 11.6591 12.3395 11.1299 12.0119 10.8023L11.0291 9.81948C13.4903 7.61868 16.6739 6.22428 20.1767 6.02268V7.41708C20.1767 7.87908 20.5547 8.25708 21.0167 8.25708C21.4787 8.25708 21.8567 7.87908 21.8567 7.41708V6.02268C25.3595 6.21588 28.5431 7.61868 31.0043 9.81948L30.0215 10.8023C29.6939 11.1299 29.6939 11.6591 30.0215 11.9867C30.1895 12.1547 30.3995 12.2303 30.6179 12.2303C30.8363 12.2303 31.0463 12.1463 31.2143 11.9867L32.1971 11.0039C34.3979 13.4651 35.7923 16.6487 35.9939 20.1515H34.5995C34.1375 20.1515 33.7595 20.5295 33.7595 20.9915C33.7595 21.4535 34.1375 21.8315 34.5995 21.8315H35.9939C35.8091 25.2419 34.4903 28.4423 32.2055 30.9959L31.2143 30.0047C30.8867 29.6771 30.3575 29.6771 30.0299 30.0047C29.7023 30.3323 29.7023 30.8615 30.0299 31.1891L31.6427 32.8019C31.9619 33.1211 32.4743 33.1295 32.8019 32.8187C32.8271 32.7935 32.8523 32.7683 32.8775 32.7347C35.9939 29.5847 37.7159 25.4183 37.7159 20.9915C37.7159 16.4051 35.8595 12.2471 32.8523 9.23148C32.8187 9.22308 32.8187 9.20628 32.8019 9.19788Z" fill="#45DEB8"/>
<path d="M27.3926 13.4232L22.5542 18.2616C22.0922 18.0012 21.5714 17.8416 21.0002 17.8416C19.253 17.8416 17.8418 19.2612 17.8418 21C17.8418 22.7472 19.2614 24.1584 21.0002 24.1584C22.7474 24.1584 24.1586 22.7388 24.1586 21C24.1586 20.4372 23.999 19.908 23.7386 19.446L28.577 14.6076C28.9046 14.28 28.9046 13.7508 28.577 13.4232C28.2494 13.0956 27.7202 13.0956 27.3926 13.4232ZM21.0002 22.4784C20.1854 22.4784 19.5218 21.8148 19.5218 21C19.5218 20.1852 20.1854 19.5216 21.0002 19.5216C21.4118 19.5216 21.7814 19.6896 22.0502 19.9584C22.319 20.2272 22.487 20.5968 22.487 21.0084C22.4786 21.8148 21.815 22.4784 21.0002 22.4784Z" fill="#45DEB8"/>
</svg>
