<svg width="60" height="60" viewBox="0 0 30 30" fill="none" xmlns="http://www.w3.org/2000/svg">
<path d="M15 0C6.726 0 0 6.726 0 15C0 23.274 6.726 30 15 30C23.274 30 30 23.274 30 15C30 6.726 23.274 0 15 0ZM15 28.8C7.392 28.8 1.2 22.608 1.2 15C1.2 7.392 7.392 1.2 15 1.2C22.608 1.2 28.8 7.392 28.8 15C28.8 22.608 22.608 28.8 15 28.8Z" fill="#585F5E"/>
<path d="M23.4301 6.57012C23.4181 6.55813 23.4061 6.55813 23.4001 6.55213C21.2401 4.41013 18.2761 3.07812 15.0001 3.07812C11.7241 3.07812 8.75412 4.40413 6.60012 6.55213C6.58812 6.55813 6.57612 6.56413 6.57012 6.57012C6.56412 6.57612 6.55812 6.59413 6.55212 6.60013C4.41012 8.76013 3.07812 11.7241 3.07812 15.0001C3.07812 18.1561 4.30212 21.1261 6.51612 23.3701C6.53412 23.3881 6.55212 23.4121 6.57012 23.4301C6.69012 23.5501 6.84012 23.6041 6.99612 23.6041C7.15212 23.6041 7.30212 23.5441 7.42213 23.4301C7.42213 23.4301 7.42212 23.4301 7.42812 23.4241L8.57413 22.2781C8.80813 22.0441 8.80813 21.6661 8.57413 21.4321C8.34013 21.1981 7.96212 21.1981 7.72812 21.4321L7.02013 22.1401C5.38813 20.3161 4.44612 18.0301 4.31412 15.5941H5.31013C5.64013 15.5941 5.91013 15.3241 5.91013 14.9941C5.91013 14.6641 5.64013 14.3941 5.31013 14.3941H4.31412C4.45212 11.8921 5.45412 9.61813 7.02612 7.86013L7.72812 8.56213C7.84812 8.68213 7.99812 8.73612 8.15412 8.73612C8.31012 8.73612 8.46012 8.67613 8.58012 8.56213C8.81412 8.32813 8.81412 7.95013 8.58012 7.71613L7.87812 7.01413C9.63612 5.44213 11.9101 4.44613 14.4121 4.30212V5.29813C14.4121 5.62812 14.6821 5.89812 15.0121 5.89812C15.3421 5.89812 15.6121 5.62812 15.6121 5.29813V4.30212C18.1141 4.44012 20.3881 5.44213 22.1461 7.01413L21.4441 7.71613C21.2101 7.95013 21.2101 8.32813 21.4441 8.56213C21.5641 8.68213 21.7141 8.73612 21.8701 8.73612C22.0261 8.73612 22.1761 8.67613 22.2961 8.56213L22.9981 7.86013C24.5701 9.61813 25.5661 11.8921 25.7101 14.3941H24.7141C24.3841 14.3941 24.1141 14.6641 24.1141 14.9941C24.1141 15.3241 24.3841 15.5941 24.7141 15.5941H25.7101C25.5781 18.0301 24.6361 20.3161 23.0041 22.1401L22.2961 21.4321C22.0621 21.1981 21.6841 21.1981 21.4501 21.4321C21.2161 21.6661 21.2161 22.0441 21.4501 22.2781L22.6021 23.4301C22.8301 23.6581 23.1961 23.6641 23.4301 23.4421C23.4481 23.4241 23.4661 23.4061 23.4841 23.3821C25.7101 21.1321 26.9401 18.1561 26.9401 14.9941C26.9401 11.7181 25.6141 8.74813 23.4661 6.59413C23.4421 6.58812 23.4421 6.57612 23.4301 6.57012Z" fill="#585F5E"/>
<path d="M19.5661 9.5881L16.1101 13.0441C15.7801 12.8581 15.4081 12.7441 15.0001 12.7441C13.7521 12.7441 12.7441 13.7581 12.7441 15.0001C12.7441 16.2481 13.7581 17.2561 15.0001 17.2561C16.2481 17.2561 17.2561 16.2421 17.2561 15.0001C17.2561 14.5981 17.1421 14.2201 16.9561 13.8901L20.4121 10.4341C20.6461 10.2001 20.6461 9.8221 20.4121 9.5881C20.1781 9.3541 19.8001 9.3541 19.5661 9.5881ZM15.0001 16.0561C14.4181 16.0561 13.9441 15.5821 13.9441 15.0001C13.9441 14.4181 14.4181 13.9441 15.0001 13.9441C15.2941 13.9441 15.5581 14.0641 15.7501 14.2561C15.9421 14.4481 16.0621 14.7121 16.0621 15.0061C16.0561 15.5821 15.5821 16.0561 15.0001 16.0561Z" fill="#585F5E"/>
</svg>
