<svg width="42" height="42" viewBox="0 0 42 42" fill="none" xmlns="http://www.w3.org/2000/svg">
<path d="M18.8533 0.001049C18.6486 0.0194251 18.4554 0.103365 18.3022 0.240389C18.1491 0.377412 18.0442 0.560201 18.0033 0.761579L17.5261 3.11773C17.1554 3.24699 16.7973 3.39336 16.4524 3.5651L14.4393 2.2379C14.2551 2.12035 14.0361 2.06954 13.819 2.09397C13.6019 2.11839 13.3997 2.21657 13.2463 2.37211C12.5246 3.09572 11.7357 3.82118 10.9796 4.57914C10.8227 4.73538 10.725 4.94132 10.7032 5.16168C10.6814 5.38205 10.737 5.60312 10.8603 5.78704L12.2173 7.80021C12.0447 8.15266 11.8985 8.5146 11.7699 8.88881L9.36905 9.41074C9.15334 9.45551 8.95975 9.57352 8.82113 9.74475C8.68251 9.91599 8.60739 10.1299 8.60852 10.3502C8.60858 11.3979 8.60854 12.4192 8.60852 13.4669C8.61081 13.6846 8.68748 13.8951 8.82582 14.0632C8.96415 14.2314 9.15584 14.3472 9.36905 14.3915L11.7699 14.9134C11.8985 15.2876 12.0447 15.6495 12.2173 16.002L10.8603 18.0301C10.7409 18.2126 10.6875 18.4306 10.7093 18.6476C10.731 18.8647 10.8264 19.0678 10.9796 19.2231C11.7357 19.981 12.5245 20.7065 13.2463 21.4301C13.3997 21.5856 13.6019 21.6838 13.819 21.7082C14.0361 21.7327 14.2551 21.6819 14.4393 21.5643L16.4673 20.252C16.8118 20.4228 17.1708 20.571 17.541 20.6994L18.0033 23.0406C18.045 23.2591 18.1617 23.4561 18.3333 23.5977C18.5048 23.7393 18.7204 23.8165 18.9428 23.8161H22.1042C22.3266 23.8165 22.5422 23.7393 22.7137 23.5977C22.8853 23.4561 23.002 23.2591 23.0437 23.0406L23.506 20.6994C23.8762 20.571 24.2352 20.4228 24.5796 20.252L26.6077 21.5643C26.7919 21.6819 27.0108 21.7327 27.228 21.7082C27.4451 21.6838 27.6473 21.5856 27.8007 21.4301C28.5225 20.7065 29.3113 19.981 30.0674 19.2231C30.2206 19.0678 30.316 18.8647 30.3377 18.6476C30.3594 18.4306 30.3061 18.2126 30.1867 18.0301L28.8297 16.002C29.0023 15.6495 29.1484 15.2876 29.277 14.9134L31.6779 14.3915C31.8911 14.3472 32.0828 14.2314 32.2212 14.0632C32.3595 13.8951 32.4362 13.6846 32.4385 13.4669C32.4384 12.4192 32.4384 11.3979 32.4385 10.3502C32.4396 10.1299 32.3645 9.91599 32.2258 9.74475C32.0872 9.57352 31.8936 9.45551 31.6779 9.41074L29.277 8.88881C29.1484 8.5146 29.0023 8.15266 28.8297 7.80021L30.1867 5.78704C30.31 5.60312 30.3655 5.38205 30.3438 5.16168C30.322 4.94132 30.2243 4.73538 30.0674 4.57914C29.3113 3.82118 28.5224 3.09572 27.8007 2.37211C27.6473 2.21657 27.4451 2.11839 27.228 2.09397C27.0108 2.06954 26.7919 2.12035 26.6077 2.2379L24.5946 3.5651C24.2497 3.39336 23.8916 3.24699 23.5209 3.11773L23.0437 0.761579C22.9989 0.545862 22.8809 0.352273 22.7097 0.213653C22.5384 0.0750328 22.3245 -8.28263e-05 22.1042 0.001049H18.9428C18.913 -0.000349665 18.8831 -0.000349665 18.8533 0.001049ZM19.7331 1.90983H21.3138L21.7314 3.96773C21.7679 4.14301 21.853 4.30447 21.977 4.43368C22.1009 4.56289 22.2587 4.65463 22.4323 4.69844C23.0678 4.86643 23.6527 5.12947 24.2218 5.45897C24.3748 5.54684 24.5492 5.59057 24.7255 5.5853C24.9019 5.58004 25.0734 5.52598 25.2209 5.42914L27.0104 4.26598C27.3958 4.64179 27.7819 5.00248 28.1586 5.36949L26.9656 7.15898C26.8665 7.30508 26.8098 7.47582 26.8019 7.65221C26.794 7.8286 26.8352 8.00372 26.9209 8.1581C27.2398 8.70767 27.5102 9.34499 27.6814 9.97741C27.7265 10.1463 27.817 10.2997 27.9433 10.4206C28.0695 10.5416 28.2265 10.6256 28.3972 10.6634L30.5297 11.1107C30.5297 11.6366 30.5297 12.1657 30.5297 12.6915L28.3972 13.1537C28.2265 13.1916 28.0695 13.2755 27.9433 13.3965C27.817 13.5175 27.7265 13.6708 27.6814 13.8397C27.5102 14.4721 27.2398 15.0945 26.9209 15.6441C26.8322 15.8002 26.7894 15.9782 26.7973 16.1576C26.8052 16.3369 26.8635 16.5104 26.9656 16.6581L28.1437 18.4327C27.7669 18.7997 27.3957 19.1753 27.0104 19.5511L25.2209 18.3731C25.072 18.2785 24.8998 18.227 24.7234 18.2244C24.5471 18.2218 24.3734 18.2681 24.2218 18.3581C23.6527 18.6876 23.0678 18.9358 22.4323 19.1038C22.2587 19.1476 22.1009 19.2393 21.977 19.3685C21.853 19.4977 21.7679 19.6592 21.7314 19.8345L21.3138 21.9073H19.7331L19.3156 19.8345C19.2791 19.6592 19.194 19.4977 19.07 19.3685C18.9461 19.2393 18.7883 19.1476 18.6147 19.1038C17.9792 18.9358 17.3943 18.6876 16.8252 18.3581C16.6736 18.2681 16.4999 18.2218 16.3236 18.2244C16.1472 18.227 15.975 18.2785 15.8261 18.3731L14.0366 19.5511C13.6512 19.1753 13.2801 18.7997 12.9033 18.4327L14.0814 16.6581C14.1834 16.5104 14.2418 16.3369 14.2497 16.1576C14.2576 15.9782 14.2148 15.8002 14.1261 15.6441C13.8072 15.0945 13.5367 14.4721 13.3656 13.8397C13.3205 13.6708 13.2299 13.5175 13.1037 13.3965C12.9775 13.2755 12.8205 13.1916 12.6498 13.1537L10.5173 12.6915C10.5173 12.1657 10.5173 11.6366 10.5173 11.1107L12.6498 10.6634C12.8205 10.6256 12.9775 10.5416 13.1037 10.4206C13.2299 10.2997 13.3205 10.1463 13.3656 9.97741C13.5367 9.34499 13.8072 8.70767 14.1261 8.1581C14.2118 8.00372 14.253 7.8286 14.2451 7.65221C14.2372 7.47582 14.1805 7.30508 14.0814 7.15898L12.8884 5.36949C13.2651 5.00248 13.6512 4.64179 14.0366 4.26598L15.8261 5.42914C15.9736 5.52598 16.1451 5.58004 16.3214 5.5853C16.4978 5.59057 16.6722 5.54684 16.8252 5.45897C17.3943 5.12947 17.9792 4.86643 18.6147 4.69844C18.7883 4.65463 18.9461 4.56289 19.07 4.43368C19.194 4.30447 19.2791 4.14301 19.3156 3.96773L19.7331 1.90983ZM20.5235 8.06863C18.4172 8.06863 16.691 9.79484 16.691 11.9011C16.691 14.0074 18.4172 15.7336 20.5235 15.7336C22.6298 15.7336 24.356 14.0074 24.356 11.9011C24.356 9.79484 22.6298 8.06863 20.5235 8.06863ZM20.5235 9.97741C21.5898 9.97741 22.4472 10.8348 22.4472 11.9011C22.4472 12.9675 21.5898 13.8248 20.5235 13.8248C19.4572 13.8248 18.5998 12.9675 18.5998 11.9011C18.5998 10.8348 19.4572 9.97741 20.5235 9.97741ZM38.2692 19.2231C37.5216 19.2231 36.8456 19.5596 36.3604 20.0582L36.3455 20.0432C36.3455 20.0432 36.3308 20.0731 36.3306 20.0731C36.3091 20.0945 35.0218 21.3688 33.6165 22.7722C32.1996 24.1872 30.7192 25.6579 30.2762 26.1424C30.1911 26.2353 30.1252 26.344 30.0824 26.4625C30.0395 26.5809 30.0205 26.7066 30.0264 26.8324C30.0322 26.9582 30.0629 27.0816 30.1167 27.1955C30.1704 27.3094 30.2462 27.4116 30.3395 27.4961C30.4329 27.5806 30.5421 27.6458 30.6607 27.688C30.7794 27.7302 30.9052 27.7485 31.031 27.7419C31.1568 27.7353 31.28 27.7039 31.3936 27.6494C31.5072 27.595 31.6089 27.5187 31.6928 27.4249C31.995 27.0944 33.5446 25.5414 34.9586 24.1292C36.3727 22.7171 37.6876 21.4003 37.6876 21.4003C37.6976 21.3955 37.7076 21.3905 37.7174 21.3854C37.8824 21.2118 38.0635 21.1318 38.2692 21.1318C38.6976 21.1318 39.1341 21.5427 39.1341 22.2055C39.1341 22.4911 39.0436 22.737 38.9104 22.9213C38.9079 22.9261 38.913 22.9329 38.9104 22.9362C38.8688 22.9862 33.1604 29.8361 29.4709 34.1503C28.4517 35.3421 27.0513 36.5214 25.0718 36.5214H13.7533C12.5357 36.5214 11.257 36.7425 10.2638 37.7144L7.56466 40.3539C7.47269 40.4413 7.39909 40.5462 7.34816 40.6625C7.29723 40.7788 7.27 40.904 7.26805 41.0309C7.26611 41.1578 7.28949 41.2838 7.33684 41.4016C7.38418 41.5193 7.45454 41.6265 7.54378 41.7167C7.63303 41.8069 7.73938 41.8785 7.85661 41.9271C7.97383 41.9758 8.09958 42.0005 8.2265 42C8.35342 41.9994 8.47895 41.9736 8.59576 41.924C8.71256 41.8743 8.8183 41.8019 8.90677 41.7109L11.6059 39.0714C12.1503 38.5387 12.7273 38.4302 13.7533 38.4302H25.0718C27.8124 38.4302 29.7315 36.7748 30.9174 35.388C34.6373 31.0383 40.4016 24.1143 40.4016 24.1143C40.412 24.0997 40.422 24.0848 40.4315 24.0696C40.8167 23.5505 41.0429 22.9016 41.0429 22.2055C41.0429 20.6202 39.851 19.2231 38.2692 19.2231ZM13.0971 26.3363C11.0722 26.3363 8.98494 26.6209 7.31115 27.9915L0.347085 33.688C0.151312 33.8502 0.0279738 34.0835 0.00420265 34.3366C-0.0195685 34.5897 0.0581747 34.8418 0.22033 35.0376C0.382485 35.2334 0.615769 35.3567 0.868862 35.3805C1.12195 35.4043 1.37412 35.3265 1.5699 35.1644L8.51905 29.4678C9.68 28.5171 11.2479 28.245 13.0971 28.245H27.1446C27.3079 28.7144 27.2876 29.288 26.9805 29.8556C26.5943 30.5695 25.9403 30.9606 25.6235 30.9293C25.5939 30.9229 25.5641 30.9179 25.534 30.9143H16.4226C16.2961 30.9125 16.1706 30.9359 16.0532 30.9831C15.9358 31.0302 15.829 31.1002 15.7389 31.189C15.6489 31.2778 15.5774 31.3837 15.5285 31.5003C15.4797 31.617 15.4546 31.7423 15.4546 31.8687C15.4546 31.9952 15.4797 32.1204 15.5285 32.2371C15.5774 32.3538 15.6489 32.4596 15.7389 32.5484C15.829 32.6372 15.9358 32.7072 16.0532 32.7544C16.1706 32.8016 16.2961 32.8249 16.4226 32.8231H25.4297H25.534V32.8082C26.9324 32.8907 28.0409 31.9049 28.6656 30.7503C29.3067 29.5655 29.5157 27.9732 28.5612 26.724C28.4733 26.6048 28.3587 26.5076 28.2267 26.4404C28.0947 26.3731 27.9489 26.3374 27.8007 26.3363H13.0971Z" fill="#45DEB8"/>
</svg>
