<svg width="60" height="60" viewBox="0 0 30 30" fill="none" xmlns="http://www.w3.org/2000/svg">
<path d="M13.4666 0.000749283C13.3205 0.0138751 13.1824 0.0738322 13.073 0.171706C12.9636 0.26958 12.8887 0.400144 12.8595 0.543985L12.5186 2.22695C12.2538 2.31928 11.9981 2.42383 11.7517 2.5465L10.3138 1.5985C10.1822 1.51453 10.0258 1.47824 9.87073 1.49569C9.71564 1.51314 9.57123 1.58327 9.46162 1.69437C8.94611 2.21123 8.38261 2.72941 7.84256 3.27081C7.73048 3.38242 7.66069 3.52952 7.64515 3.68692C7.6296 3.84432 7.66927 4.00223 7.75735 4.1336L8.72665 5.57158C8.60334 5.82333 8.49896 6.08185 8.4071 6.34915L6.69218 6.72196C6.5381 6.75393 6.39982 6.83823 6.30081 6.96054C6.20179 7.08285 6.14814 7.23565 6.14895 7.39301C6.14898 8.14134 6.14896 8.87084 6.14895 9.61921C6.15058 9.77475 6.20534 9.92505 6.30416 10.0452C6.40297 10.1653 6.53988 10.248 6.69218 10.2796L8.4071 10.6524C8.49896 10.9197 8.60334 11.1782 8.72665 11.43L7.75735 12.8786C7.67204 13.009 7.63396 13.1647 7.64947 13.3197C7.66497 13.4748 7.73312 13.6198 7.84256 13.7308C8.38261 14.2721 8.94607 14.7903 9.46162 15.3072C9.57123 15.4183 9.71564 15.4884 9.87073 15.5059C10.0258 15.5233 10.1822 15.487 10.3138 15.4031L11.7624 14.4657C12.0084 14.5877 12.2649 14.6936 12.5293 14.7853L12.8595 16.4576C12.8893 16.6136 12.9727 16.7544 13.0952 16.8555C13.2177 16.9566 13.3717 17.0118 13.5306 17.0115H15.7887C15.9476 17.0118 16.1016 16.9566 16.2241 16.8555C16.3466 16.7544 16.43 16.6136 16.4598 16.4576L16.79 14.7853C17.0544 14.6936 17.3108 14.5877 17.5569 14.4657L19.0055 15.4031C19.1371 15.487 19.2935 15.5233 19.4485 15.5059C19.6036 15.4884 19.748 15.4183 19.8577 15.3072C20.3732 14.7903 20.9367 14.2721 21.4767 13.7308C21.5862 13.6198 21.6543 13.4748 21.6698 13.3197C21.6853 13.1647 21.6472 13.009 21.5619 12.8786L20.5926 11.43C20.7159 11.1782 20.8203 10.9197 20.9122 10.6524L22.6271 10.2796C22.7794 10.248 22.9163 10.1653 23.0151 10.0452C23.1139 9.92505 23.1687 9.77475 23.1703 9.61921C23.1703 8.87084 23.1703 8.14134 23.1703 7.39301C23.1711 7.23565 23.1175 7.08285 23.0185 6.96054C22.9194 6.83823 22.7812 6.75393 22.6271 6.72196L20.9122 6.34915C20.8203 6.08185 20.7159 5.82333 20.5926 5.57158L21.5619 4.1336C21.65 4.00223 21.6897 3.84432 21.6741 3.68692C21.6586 3.52952 21.5888 3.38242 21.4767 3.27081C20.9367 2.72941 20.3732 2.21123 19.8577 1.69437C19.748 1.58327 19.6036 1.51314 19.4485 1.49569C19.2935 1.47824 19.1371 1.51453 19.0055 1.5985L17.5675 2.5465C17.3212 2.42383 17.0654 2.31928 16.8006 2.22695L16.4598 0.543985C16.4278 0.389901 16.3435 0.251624 16.2212 0.152609C16.0989 0.0535948 15.9461 -5.91616e-05 15.7887 0.000749283H13.5306C13.5093 -0.000249761 13.4879 -0.000249761 13.4666 0.000749283ZM14.0951 1.36416H15.2242L15.5224 2.8341C15.5485 2.95929 15.6093 3.07462 15.6978 3.16691C15.7864 3.25921 15.8991 3.32474 16.0231 3.35603C16.477 3.47602 16.8948 3.66391 17.3013 3.89926C17.4106 3.96203 17.5351 3.99326 17.6611 3.9895C17.7871 3.98574 17.9096 3.94713 18.0149 3.87796L19.2931 3.04713C19.5684 3.31556 19.8442 3.5732 20.1133 3.83535L19.2612 5.11355C19.1903 5.21791 19.1499 5.33987 19.1442 5.46586C19.1386 5.59186 19.168 5.71694 19.2292 5.82722C19.457 6.21976 19.6502 6.67499 19.7724 7.12672C19.8046 7.24738 19.8693 7.35689 19.9595 7.4433C20.0496 7.5297 20.1618 7.58968 20.2837 7.6167L21.8069 7.93625C21.8069 8.31188 21.8069 8.68976 21.8069 9.06533L20.2837 9.39553C20.1618 9.42254 20.0496 9.48252 19.9595 9.56893C19.8693 9.65533 19.8046 9.76484 19.7724 9.8855C19.6502 10.3372 19.457 10.7818 19.2292 11.1744C19.1659 11.2859 19.1353 11.413 19.1409 11.5411C19.1466 11.6692 19.1882 11.7932 19.2612 11.8987L20.1026 13.1662C19.8335 13.4284 19.5684 13.6966 19.2931 13.9651L18.0149 13.1236C17.9086 13.0561 17.7856 13.0193 17.6596 13.0174C17.5336 13.0156 17.4096 13.0486 17.3013 13.113C16.8948 13.3483 16.477 13.5256 16.0231 13.6455C15.8991 13.6768 15.7864 13.7424 15.6978 13.8347C15.6093 13.927 15.5485 14.0423 15.5224 14.1675L15.2242 15.6481H14.0951L13.7969 14.1675C13.7708 14.0423 13.71 13.927 13.6214 13.8347C13.5329 13.7424 13.4202 13.6768 13.2962 13.6455C12.8423 13.5256 12.4245 13.3483 12.018 13.113C11.9097 13.0486 11.7857 13.0156 11.6597 13.0174C11.5337 13.0193 11.4107 13.0561 11.3044 13.1236L10.0262 13.9651C9.75089 13.6967 9.48577 13.4284 9.21663 13.1662L10.0581 11.8987C10.131 11.7932 10.1727 11.6692 10.1784 11.5411C10.184 11.413 10.1534 11.2859 10.0901 11.1744C9.86225 10.7818 9.66911 10.3372 9.54683 9.8855C9.51466 9.76484 9.44996 9.65533 9.3598 9.56893C9.26964 9.48252 9.15747 9.42254 9.03555 9.39553L7.51236 9.06533C7.51237 8.68976 7.51237 8.31188 7.51236 7.93625L9.03555 7.6167C9.15747 7.58968 9.26964 7.5297 9.3598 7.4433C9.44996 7.35689 9.51466 7.24738 9.54683 7.12672C9.66911 6.67499 9.86225 6.21976 10.0901 5.82722C10.1513 5.71694 10.1807 5.59186 10.175 5.46586C10.1694 5.33987 10.1289 5.21791 10.0581 5.11355L9.20598 3.83535C9.47505 3.5732 9.75083 3.31556 10.0262 3.04713L11.3044 3.87796C11.4097 3.94713 11.5322 3.98574 11.6582 3.9895C11.7842 3.99326 11.9087 3.96203 12.018 3.89926C12.4245 3.66391 12.8423 3.47602 13.2962 3.35603C13.4202 3.32474 13.5329 3.25921 13.6214 3.16691C13.71 3.07462 13.7708 2.95929 13.7969 2.8341L14.0951 1.36416ZM14.6596 5.76331C13.1552 5.76331 11.9222 6.99631 11.9222 8.50079C11.9222 10.0053 13.1552 11.2383 14.6596 11.2383C16.1641 11.2383 17.3971 10.0053 17.3971 8.50079C17.3971 6.99631 16.1641 5.76331 14.6596 5.76331ZM14.6596 7.12672C15.4213 7.12672 16.0337 7.73915 16.0337 8.50079C16.0337 9.26247 15.4213 9.87485 14.6596 9.87485C13.898 9.87485 13.2856 9.26247 13.2856 8.50079C13.2856 7.73915 13.898 7.12672 14.6596 7.12672ZM27.3351 13.7308C26.8011 13.7308 26.3183 13.9711 25.9717 14.3273L25.9611 14.3166C25.9611 14.3166 25.9505 14.3379 25.9504 14.3379C25.9351 14.3532 25.0156 15.2634 24.0118 16.2659C22.9997 17.2766 21.9423 18.3271 21.6258 18.6731C21.5651 18.7395 21.518 18.8172 21.4874 18.9018C21.4568 18.9863 21.4432 19.0762 21.4474 19.166C21.4516 19.2559 21.4735 19.344 21.5119 19.4254C21.5503 19.5067 21.6044 19.5797 21.6711 19.6401C21.7378 19.7004 21.8158 19.747 21.9005 19.7772C21.9853 19.8073 22.0752 19.8204 22.165 19.8156C22.2548 19.8109 22.3428 19.7885 22.424 19.7496C22.5051 19.7107 22.5778 19.6562 22.6377 19.5892C22.8535 19.3532 23.9604 18.2438 24.9705 17.2352C25.9805 16.2265 26.9197 15.2859 26.9197 15.2859C26.9269 15.2825 26.934 15.2789 26.941 15.2753C27.0589 15.1512 27.1882 15.0942 27.3351 15.0942C27.6412 15.0942 27.9529 15.3876 27.9529 15.8611C27.9529 16.0651 27.8883 16.2407 27.7931 16.3724C27.7913 16.3758 27.795 16.3806 27.7931 16.383C27.7634 16.4187 23.686 21.3115 21.0506 24.3931C20.3227 25.2444 19.3224 26.0867 17.9084 26.0867H9.82377C8.95407 26.0867 8.04072 26.2446 7.33128 26.9388L5.40333 28.8242C5.33764 28.8867 5.28506 28.9616 5.24868 29.0446C5.21231 29.1277 5.19285 29.2171 5.19147 29.3078C5.19008 29.3984 5.20678 29.4884 5.2406 29.5725C5.27442 29.6567 5.32467 29.7332 5.38842 29.7976C5.45217 29.8621 5.52813 29.9132 5.61186 29.9479C5.69559 29.9827 5.78542 30.0004 5.87607 30C5.96672 29.9996 6.05639 29.9811 6.13983 29.9457C6.22326 29.9102 6.29878 29.8585 6.36198 29.7935L8.28993 27.9081C8.67881 27.5276 9.09091 27.4501 9.82377 27.4501H17.9084C19.866 27.4501 21.2368 26.2677 22.0839 25.2772C24.7409 22.1702 28.8583 17.2245 28.8583 17.2245C28.8657 17.2141 28.8728 17.2034 28.8796 17.1926C29.1548 16.8218 29.3163 16.3583 29.3163 15.8611C29.3163 14.7287 28.465 13.7308 27.3351 13.7308ZM9.3551 18.8116C7.9087 18.8116 6.41782 19.0149 5.22225 19.9939L0.247918 24.0629C0.10808 24.1787 0.0199813 24.3453 0.00300189 24.5261C-0.0139775 24.7069 0.0415534 24.887 0.157378 25.0269C0.273203 25.1667 0.439835 25.2548 0.620615 25.2718C0.801396 25.2888 0.981518 25.2332 1.12136 25.1174L6.08504 21.0485C6.91428 20.3694 8.0342 20.175 9.3551 20.175H19.389C19.5057 20.5103 19.4911 20.92 19.2718 21.3254C18.9959 21.8353 18.5288 22.1147 18.3025 22.0923C18.2814 22.0878 18.2601 22.0842 18.2386 22.0817H11.7304C11.6401 22.0804 11.5504 22.0971 11.4666 22.1308C11.3827 22.1644 11.3064 22.2145 11.2421 22.2779C11.1778 22.3413 11.1267 22.4169 11.0918 22.5002C11.0569 22.5836 11.039 22.673 11.039 22.7634C11.039 22.8537 11.0569 22.9432 11.0918 23.0265C11.1267 23.1099 11.1778 23.1854 11.2421 23.2489C11.3064 23.3123 11.3827 23.3623 11.4666 23.396C11.5504 23.4297 11.6401 23.4464 11.7304 23.4451H18.164H18.2386V23.4344C19.2374 23.4933 20.0292 22.7892 20.4755 21.9645C20.9333 21.1182 21.0827 19.9809 20.4009 19.0886C20.338 19.0034 20.2562 18.934 20.162 18.886C20.0677 18.8379 19.9635 18.8124 19.8577 18.8116H9.3551Z" fill="#585F5E"/>
</svg>
