<svg width="60" height="60" viewBox="0 0 30 29" fill="none" xmlns="http://www.w3.org/2000/svg"> <path d="M4.78723 0C4.67223 0.000967125 4.55962 0.0329941 4.46131 0.0926825C4.363 0.152371 4.28264 0.237504 4.22872 0.339096L0.0797872 7.99867C0.0290384 8.09034 0.00163647 8.1931 0 8.29787V9.89362C0 11.3767 0.929512 12.652 2.23404 13.1649V27.4468C2.23406 27.6161 2.30131 27.7785 2.42101 27.8982C2.54071 28.0179 2.70306 28.0851 2.87234 28.0851H6.65226H13.1449H27.1277C27.2969 28.0851 27.4593 28.0179 27.579 27.8982C27.6987 27.7785 27.7659 27.6161 27.766 27.4468V13.1649C29.0705 12.652 30 11.3767 30 9.89362V8.29787C29.9984 8.1931 29.971 8.09034 29.9202 7.99867L25.7713 0.339096C25.7174 0.237504 25.637 0.152371 25.5387 0.0926825C25.4404 0.0329941 25.3278 0.000967125 25.2128 0H4.78723ZM5.16622 1.2766H24.8338L28.2945 7.65957H1.70545L5.16622 1.2766ZM1.2766 8.93617H5.74468V9.89362C5.74468 11.1423 4.75934 12.1277 3.51064 12.1277C2.26194 12.1277 1.2766 11.1423 1.2766 9.89362V8.93617ZM7.02128 8.93617H11.4894V9.89362C11.4894 11.1423 10.504 12.1277 9.25532 12.1277C8.00662 12.1277 7.02128 11.1423 7.02128 9.89362V8.93617ZM12.766 8.93617H17.234V9.89362C17.234 11.1423 16.2487 12.1277 15 12.1277C13.7513 12.1277 12.766 11.1423 12.766 9.89362V8.93617ZM18.5106 8.93617H22.9787V9.89362C22.9787 11.1423 21.9934 12.1277 20.7447 12.1277C19.496 12.1277 18.5106 11.1423 18.5106 9.89362V8.93617ZM24.2553 8.93617H28.7234V9.89362C28.7234 11.1423 27.7381 12.1277 26.4894 12.1277C25.2407 12.1277 24.2553 11.1423 24.2553 9.89362V8.93617ZM6.38298 11.9082C7.01903 12.8131 8.06929 13.4043 9.25532 13.4043C10.4414 13.4043 11.4916 12.8131 12.1277 11.9082C12.7637 12.8131 13.814 13.4043 15 13.4043C16.186 13.4043 17.2363 12.8131 17.8723 11.9082C18.5084 12.8131 19.5586 13.4043 20.7447 13.4043C21.9307 13.4043 22.981 12.8131 23.617 11.9082C24.2531 12.8131 25.3033 13.4043 26.4894 13.4043V26.8085H13.7234V17.2341C13.7234 17.0648 13.6561 16.9024 13.5364 16.7827C13.4167 16.663 13.2544 16.5958 13.0851 16.5958H6.70213C6.53285 16.5958 6.3705 16.663 6.2508 16.7827C6.1311 16.9024 6.06385 17.0648 6.06383 17.2341V26.8085H3.51064V13.4043C4.69667 13.4043 5.74693 12.8131 6.38298 11.9082ZM16.2766 16.5958C16.1073 16.5958 15.945 16.663 15.8253 16.7827C15.7056 16.9024 15.6383 17.0648 15.6383 17.2341V21.7021C15.6383 21.8714 15.7056 22.0338 15.8253 22.1535C15.945 22.2732 16.1073 22.3404 16.2766 22.3404H23.2979C23.4672 22.3404 23.6295 22.2732 23.7492 22.1535C23.8689 22.0338 23.9362 21.8714 23.9362 21.7021V17.2341C23.9362 17.0648 23.8689 16.9024 23.7492 16.7827C23.6295 16.663 23.4672 16.5958 23.2979 16.5958H16.2766ZM7.34043 17.8724H12.4468V26.8085H7.34043V17.8724ZM16.9149 17.8724H22.6596V21.0638H16.9149V17.8724Z" fill="#585F5E"/> </svg>