<svg width="45" height="42" viewBox="0 0 45 42" fill="none" xmlns="http://www.w3.org/2000/svg">
<path d="M7.15909 0C6.9871 0.00144629 6.81869 0.0493411 6.67168 0.138602C6.52466 0.227864 6.40448 0.355176 6.32386 0.507102L0.119318 11.9616C0.0434255 12.0987 0.00244726 12.2524 0 12.4091V14.7954C0 17.0133 1.39004 18.9204 3.34091 19.6875V41.0455C3.34093 41.2986 3.44151 41.5414 3.62051 41.7204C3.79952 41.8994 4.0423 42 4.29545 42H9.94815H19.6577H40.5682C40.8213 42 41.0641 41.8994 41.2431 41.7204C41.4221 41.5414 41.5227 41.2986 41.5227 41.0455V19.6875C43.4736 18.9204 44.8636 17.0133 44.8636 14.7954V12.4091C44.8612 12.2524 44.8202 12.0987 44.7443 11.9616L38.5397 0.507102C38.4591 0.355176 38.3389 0.227864 38.1919 0.138602C38.0449 0.0493411 37.8765 0.00144629 37.7045 0H7.15909ZM7.72585 1.90909H37.1378L42.3132 11.4545H2.55042L7.72585 1.90909ZM1.90909 13.3636H8.5909V14.7954C8.5909 16.6628 7.11737 18.1364 5.25 18.1364C3.38263 18.1364 1.90909 16.6628 1.90909 14.7954V13.3636ZM10.5 13.3636H17.1818V14.7954C17.1818 16.6628 15.7083 18.1364 13.8409 18.1364C11.9735 18.1364 10.5 16.6628 10.5 14.7954V13.3636ZM19.0909 13.3636H25.7727V14.7954C25.7727 16.6628 24.2992 18.1364 22.4318 18.1364C20.5644 18.1364 19.0909 16.6628 19.0909 14.7954V13.3636ZM27.6818 13.3636H34.3636V14.7954C34.3636 16.6628 32.8901 18.1364 31.0227 18.1364C29.1553 18.1364 27.6818 16.6628 27.6818 14.7954V13.3636ZM36.2727 13.3636H42.9545V14.7954C42.9545 16.6628 41.481 18.1364 39.6136 18.1364C37.7462 18.1364 36.2727 16.6628 36.2727 14.7954V13.3636ZM9.54545 17.8082C10.4966 19.1613 12.0672 20.0454 13.8409 20.0454C15.6146 20.0454 17.1852 19.1613 18.1364 17.8082C19.0875 19.1613 20.6581 20.0454 22.4318 20.0454C24.2055 20.0454 25.7761 19.1613 26.7273 17.8082C27.6784 19.1613 29.249 20.0454 31.0227 20.0454C32.7964 20.0454 34.367 19.1613 35.3182 17.8082C36.2693 19.1613 37.84 20.0454 39.6136 20.0454V40.0909H20.5227V25.7727C20.5227 25.5196 20.4221 25.2768 20.2431 25.0978C20.0641 24.9188 19.8213 24.8182 19.5682 24.8182H10.0227C9.76957 24.8182 9.52679 24.9188 9.34778 25.0978C9.16878 25.2768 9.0682 25.5196 9.06818 25.7727V40.0909H5.25V20.0454C7.02365 20.0454 8.59427 19.1613 9.54545 17.8082ZM24.3409 24.8182C24.0877 24.8182 23.845 24.9188 23.666 25.0978C23.4869 25.2768 23.3864 25.5196 23.3863 25.7727V32.4546C23.3864 32.7077 23.4869 32.9505 23.666 33.1295C23.845 33.3085 24.0877 33.4091 24.3409 33.4091H34.8409C35.094 33.4091 35.3368 33.3085 35.5158 33.1295C35.6948 32.9505 35.7954 32.7077 35.7954 32.4546V25.7727C35.7954 25.5196 35.6948 25.2768 35.5158 25.0978C35.3368 24.9188 35.094 24.8182 34.8409 24.8182H24.3409ZM10.9773 26.7273H18.6136V40.0909H10.9773V26.7273ZM25.2954 26.7273H33.8863V31.5H25.2954V26.7273Z" fill="#45DEB8"/>
</svg>
