<svg width="53" height="42" viewBox="0 0 53 42" fill="none" xmlns="http://www.w3.org/2000/svg">
<path d="M51.4839 0H0.677419C0.302986 0 0 0.303317 0 0.677419V31.1613C0 31.5354 0.302986 31.8387 0.677419 31.8387H23.7097V37.2581H17.6129C17.2385 37.2581 16.9355 37.5614 16.9355 37.9355V41.3226C16.9355 41.6967 17.2385 42 17.6129 42H34.5484C34.9228 42 35.2258 41.6967 35.2258 41.3226V37.9355C35.2258 37.5614 34.9228 37.2581 34.5484 37.2581H28.4516V31.8387H51.4839C51.8583 31.8387 52.1613 31.5354 52.1613 31.1613V0.677419C52.1613 0.303317 51.8583 0 51.4839 0ZM33.871 38.6129V40.6452H18.2903V38.6129H24.3871H27.7742H33.871ZM25.0645 37.2581V31.8387H27.0968V37.2581H25.0645ZM50.8065 30.4839H27.7742H24.3871H1.35484V1.35484H50.8065V30.4839Z" fill="#45DEB8"/>
<path d="M14.2258 18.2904H17.6129C17.7929 18.2904 17.9649 18.219 18.0919 18.0919L20.8141 15.3694L23.7811 21.3031C23.9035 21.5478 24.1536 21.6937 24.4354 21.6759C24.7086 21.6563 24.9428 21.4741 25.0295 21.2144L27.7742 12.9809L30.5189 21.2144C30.593 21.437 30.7769 21.6054 31.0058 21.6593C31.0574 21.6716 31.1097 21.6775 31.1613 21.6775C31.3386 21.6775 31.5119 21.6077 31.6403 21.479L34.8289 18.2904H37.9355C38.3099 18.2904 38.6129 17.9871 38.6129 17.613C38.6129 17.2389 38.3099 16.9356 37.9355 16.9356H34.5484C34.3685 16.9356 34.1965 17.007 34.0694 17.134L31.4577 19.7461L28.4166 10.6245C28.3246 10.3479 28.0659 10.1614 27.7742 10.1614C27.4825 10.1614 27.2238 10.3479 27.1319 10.6245L24.2614 19.2344L21.606 13.9229C21.5087 13.7281 21.3235 13.5921 21.1085 13.5571C20.8902 13.5223 20.6745 13.5928 20.5211 13.7469L17.3324 16.9356H14.2258C13.8514 16.9356 13.5484 17.2389 13.5484 17.613C13.5484 17.9871 13.8514 18.2904 14.2258 18.2904Z" fill="#45DEB8"/>
</svg>
