<svg width="198" height="56" viewBox="0 0 198 56" fill="none" xmlns="http://www.w3.org/2000/svg">
<path d="M149.82 1.12012V26.8801C149.82 28.5601 150.59 29.4561 152.24 29.4561H160.6V32.3681C160.6 32.7041 160.38 32.9281 160.05 32.9281H146.52C142.34 32.9281 141.68 30.5761 141.68 28.4481V2.91212C141.68 1.68012 142.12 1.12012 143.55 1.12012H149.82Z" fill="white"/>
<path d="M134.31 1.12012V31.2481C134.31 32.5921 133.76 32.9281 132.66 32.9281H126.28V2.80012C126.28 1.79212 126.61 1.12012 128.04 1.12012H134.31Z" fill="white"/>
<path d="M1.87012 5.48812C1.87012 3.02412 1.87012 1.12012 5.83012 1.12012H22.9901V4.14412C22.9901 4.36812 22.8801 4.59212 22.5501 4.59212H12.2101C10.8901 4.59212 10.2301 5.26412 10.2301 6.72012V14.7841H22.3301V18.0321C22.3301 18.3681 22.1101 18.4801 21.8901 18.4801H10.2301V31.2481C10.2301 32.4801 9.57012 32.9281 8.25012 32.9281H1.87012V5.48812Z" fill="white"/>
<path d="M35.42 1.12006V25.4241C35.42 27.5521 35.75 29.0081 37.18 29.7921C39.05 30.9121 42.35 30.9121 44.33 29.7921C45.65 29.0081 46.2 27.7761 46.2 25.4241V2.68806C46.2 1.68006 46.53 1.12006 47.96 1.12006H54.23V24.6401C54.23 30.1281 50.82 32.3681 47.85 33.1521C43.89 34.2721 37.84 34.2721 34.1 33.1521C29.59 31.8081 27.5 29.1201 27.5 24.6401V2.68806C27.5 1.68006 27.83 1.00806 29.04 1.00806H35.42" fill="white"/>
<path d="M186.89 1.12012C185.35 1.12012 184.36 1.90412 184.03 3.36012L178.97 25.3121H178.86L173.47 1.12012H166.32C164.89 1.12012 164.45 1.79212 164.45 3.02412V33.0401H167.53C167.97 33.0401 168.19 32.8161 168.19 32.2561V7.05612H168.63L175.12 32.9281H179.41C181.06 32.9281 181.61 32.2561 182.05 30.6881L187.88 7.05612H188.32V32.9281H194.04C195.47 32.9281 196.02 32.3681 196.02 31.0241V1.12012H186.89Z" fill="white"/>
<path d="M92.1799 18.3679H84.1499V32.9279H90.5299C91.6299 32.9279 92.1799 32.5919 92.1799 31.2479C92.1799 31.2479 92.1799 25.0879 92.1799 18.3679Z" fill="white"/>
<path d="M91.7399 12.2081C92.0699 11.9841 92.1799 11.7601 92.1799 11.3121V1.12012H85.9099C84.4799 1.12012 84.1499 1.79212 84.1499 2.80012V18.2561L91.7399 12.2081Z" fill="#FB0020"/>
<path d="M64.2402 30.4641C67.7602 30.0161 68.8602 27.8881 68.8602 24.7521V2.80012C68.8602 1.45612 69.5202 1.12012 70.4002 1.12012H76.7802V21.8401C76.7802 26.8801 75.6802 29.4561 72.8202 31.6961C71.2802 32.8161 68.6402 34.1601 62.7002 34.1601C59.4002 34.1601 57.8602 33.9361 57.6402 33.9361C57.3102 33.8241 57.2002 33.7121 57.2002 33.4881V30.8001C58.8502 30.6881 61.9302 30.8001 64.2402 30.4641Z" fill="white"/>
<path d="M104.39 1.12012C100.43 1.12012 100.43 3.13612 100.43 5.48812V13.6641C100.43 13.8881 100.32 13.8881 100.32 14.0001L94.8198 18.3681H100.43V32.9281H106.81C108.13 32.9281 108.79 32.4801 108.79 31.2481V18.3681H120.45C120.67 18.3681 120.89 18.2561 120.89 17.9201V14.6721H108.79V6.60812C108.79 5.15212 109.45 4.48012 110.88 4.48012H121.22C121.55 4.48012 121.66 4.25612 121.66 4.03212V1.12012H104.39Z" fill="white"/>
<path d="M11.8802 42.448L15.6202 50.848L19.1402 42.448H20.9002L15.9502 54.32C15.8402 54.656 15.5102 54.768 15.2902 54.768H14.5202L9.2402 42.896C9.1302 42.672 9.3502 42.448 9.5702 42.448H11.8802Z" fill="white"/>
<path d="M32.8899 54.2081C32.8899 54.4321 32.6699 54.6561 32.4499 54.6561H30.3599V41.6641C30.3599 41.4401 30.5799 41.2161 30.7999 41.2161H32.8899V54.2081Z" fill="white"/>
<path d="M104.39 43.0081C104.39 42.7841 104.61 42.5601 104.94 42.5601H107.25V54.2081C107.25 54.4321 107.03 54.7681 106.81 54.7681H104.5V43.0081" fill="white"/>
<path d="M141.46 45.3601L143.99 51.0721L146.52 45.3601H148.28L144.21 54.4321C144.1 54.6561 143.77 54.8801 143.55 54.8801H142.89L138.93 45.8081C138.82 45.5841 139.04 45.3601 139.26 45.3601H141.46Z" fill="white"/>
<path d="M165.55 46.0319C165.55 45.8079 165.77 45.4719 165.99 45.4719H168.08V54.2079C168.08 54.4319 167.86 54.6559 167.64 54.6559H165.55V46.0319Z" fill="white"/>
<path d="M71.2801 45.248C70.5101 45.248 69.6301 45.696 68.9701 46.256V45.472H66.8801C66.6601 45.472 66.3301 45.696 66.3301 46.032V54.768H68.4201C68.6401 54.768 68.9701 54.544 68.9701 54.208V48.048V47.936C70.5101 46.368 72.0501 47.152 72.8201 47.824V45.696C72.4901 45.472 72.1601 45.248 71.2801 45.248Z" fill="white"/>
<path d="M25.5201 52.64C25.5201 51.744 25.5201 50.512 25.5201 49.616C23.7601 50.176 22.9901 51.296 22.9901 52.192C22.9901 52.752 23.3201 53.424 23.9801 53.424C24.7501 53.312 25.1901 52.864 25.5201 52.64ZM24.5301 45.248C27.3901 45.248 28.0501 46.592 28.0501 47.712V54.096C28.0501 54.32 27.8301 54.544 27.5001 54.544H25.4101V53.76V53.648C24.6401 54.432 23.5401 54.656 22.9901 54.656C22.4401 54.656 20.3501 54.432 20.3501 52.192C20.3501 49.728 23.4301 48.832 25.5201 48.272C25.5201 47.6 25.5201 47.376 25.4101 46.928C25.3001 46.48 24.6401 46.368 24.4201 46.368C23.3201 46.368 22.1101 46.704 21.0101 47.264V46.032C22.0001 45.696 23.3201 45.248 24.5301 45.248Z" fill="white"/>
<path d="M64.1297 42.8961C64.7897 42.8961 65.2297 42.8961 65.8897 43.1201V41.8881C65.2297 41.6641 64.5697 41.6641 63.9097 41.6641C62.8097 41.6641 60.3897 42.1121 60.3897 44.2401V45.4721H58.7397V46.5921H60.3897V54.6561H62.4797C62.6997 54.6561 62.9197 54.4321 62.9197 54.2081V46.5921H65.0097V45.4721H62.9197V44.9121C62.9197 44.2401 62.9197 44.0161 63.0297 43.5681C63.3597 43.1201 63.9097 42.8961 64.1297 42.8961Z" fill="white"/>
<path fill-rule="evenodd" clip-rule="evenodd" d="M44.4399 50.3999C44.4399 52.7519 46.4199 54.8799 48.8399 54.8799C50.2699 54.8799 51.3699 54.0959 52.0299 53.4239C52.5799 52.8639 53.0199 52.1919 53.1299 51.1839H51.8099C51.6999 51.6319 51.0399 53.0879 49.3899 53.0879C47.4099 53.0879 47.0799 51.1839 47.0799 49.9519H53.0199C53.1299 47.3759 51.6999 45.4719 49.0599 45.3599C46.5299 45.2479 44.4399 47.1519 44.4399 50.3999ZM48.3999 46.4799C49.1699 46.4799 49.9399 47.0399 49.9399 48.9439H46.9699C47.0799 48.1599 47.1899 46.4799 48.3999 46.4799Z" fill="white"/>
<path d="M77.6598 46.3679C76.7798 46.4799 75.6798 47.9359 76.2298 51.0719C76.5598 53.0879 77.5498 53.7599 78.3198 53.7599C79.0898 53.7599 79.9698 52.6399 79.9698 50.7359C79.9698 46.8159 78.3198 46.2559 77.6598 46.3679ZM82.7198 49.9519C82.7198 52.5279 80.7398 54.8799 77.9898 54.8799C75.3498 54.8799 73.2598 52.8639 73.2598 50.1759C73.2598 47.4879 75.1298 45.3599 77.9898 45.3599C80.7398 45.2479 82.7198 47.2639 82.7198 49.9519Z" fill="white"/>
<path d="M133.32 46.3679C132.44 46.4799 131.34 47.9359 131.89 51.0719C132.22 53.0879 133.21 53.7599 133.98 53.7599C134.75 53.7599 135.63 52.6399 135.63 50.7359C135.63 46.8159 133.98 46.2559 133.32 46.3679ZM138.38 49.9519C138.38 52.5279 136.4 54.8799 133.65 54.8799C131.01 54.8799 128.92 52.8639 128.92 50.1759C128.92 47.4879 130.79 45.3599 133.65 45.3599C136.29 45.2479 138.38 47.2639 138.38 49.9519Z" fill="white"/>
<path d="M174.24 46.3679C173.36 46.4799 172.26 47.9359 172.81 51.0719C173.14 53.0879 174.13 53.7599 174.9 53.7599C175.67 53.7599 176.55 52.6399 176.55 50.7359C176.55 46.8159 175.01 46.2559 174.24 46.3679ZM179.41 49.9519C179.41 52.5279 177.43 54.8799 174.68 54.8799C172.04 54.8799 169.95 52.8639 169.95 50.1759C169.95 47.4879 171.82 45.3599 174.68 45.3599C177.32 45.2479 179.41 47.2639 179.41 49.9519Z" fill="white"/>
<path d="M168.3 43.2319C168.3 44.0159 167.64 44.6879 166.87 44.6879C166.1 44.6879 165.44 44.0159 165.44 43.2319C165.44 42.4479 166.1 41.7759 166.87 41.7759C167.64 41.7759 168.3 42.4479 168.3 43.2319Z" fill="white"/>
<path d="M37.6198 45.4719V51.9679C37.6198 52.5279 38.0598 53.3119 38.8298 53.3119C39.2698 53.3119 39.8198 52.7519 40.2598 52.1919V46.0319C40.2598 45.8079 40.4798 45.5839 40.8098 45.5839H42.8998V54.3199C42.8998 54.5439 42.6798 54.7679 42.3498 54.7679H40.2598V53.8719C39.9298 54.2079 39.5998 54.4319 39.1598 54.6559C38.8298 54.8799 38.3898 54.8799 38.0598 54.8799C36.2998 54.8799 35.0898 53.4239 35.0898 51.9679V46.0319C35.0898 45.8079 35.3098 45.5839 35.6398 45.5839H37.6198" fill="white"/>
<path d="M159.17 45.4721V43.1201C159.17 42.8961 159.39 42.5601 159.61 42.5601H161.7V45.4721H163.79V46.5921H161.7V52.5281C161.7 52.7521 161.7 52.8641 161.81 52.9761C161.92 53.0881 162.14 53.2001 162.36 53.2001C162.91 53.2001 163.68 52.7521 163.79 52.5281V53.8721C163.24 54.3201 162.36 54.8801 161.26 54.8801C159.61 54.8801 159.06 53.6481 159.06 52.6401V46.5921H157.74V45.4721H159.17Z" fill="white"/>
<path d="M122.1 47.9361C122.21 47.8241 123.09 46.9281 123.86 46.9281C124.41 46.9281 124.74 47.6001 124.74 48.3841V54.6561H126.83C127.05 54.6561 127.27 54.4321 127.27 54.2081V48.1601C127.27 46.4801 125.84 45.3601 124.63 45.3601C123.31 45.3601 122.43 45.9201 121.99 46.2561V45.5841H119.9C119.68 45.5841 119.35 45.8081 119.35 46.0321V54.7681H121.44C121.66 54.7681 121.99 54.5441 121.99 54.3201V47.9361H122.1Z" fill="white"/>
<path d="M183.59 47.9361C183.7 47.8241 184.58 46.9281 185.35 46.9281C185.9 46.9281 186.23 47.6001 186.23 48.3841V54.6561H188.32C188.54 54.6561 188.76 54.4321 188.76 54.2081V48.1601C188.76 46.4801 187.33 45.3601 186.12 45.3601C184.8 45.3601 183.92 45.9201 183.48 46.2561V45.5841H181.5C181.28 45.5841 181.06 45.8081 181.06 46.0321V54.7681H183.15C183.37 54.7681 183.59 54.5441 183.59 54.3201V47.9361Z" fill="white"/>
<path d="M149.49 46.032V47.264C150.48 46.816 151.8 46.368 152.9 46.368C153.12 46.368 153.78 46.48 153.89 46.928C154 47.376 154 47.6 154 48.272C151.91 48.832 148.83 49.728 148.83 52.192C148.83 54.432 150.92 54.656 151.47 54.656C152.02 54.656 153.12 54.544 153.89 53.648V53.76V54.544H155.98C156.2 54.544 156.53 54.32 156.53 54.096V47.712C156.53 46.592 155.87 45.248 153.01 45.248C151.8 45.248 150.48 45.696 149.49 46.032ZM152.46 53.312C151.8 53.312 151.47 52.64 151.47 52.08C151.47 51.296 152.24 50.176 154 49.504C154 50.4 154 51.632 154 52.528C153.67 52.864 153.23 53.312 152.46 53.312Z" fill="white"/>
<path d="M112.2 47.9361C112.31 47.8241 113.19 46.9281 113.96 46.9281C114.51 46.9281 114.84 47.6001 114.84 48.3841V54.6561H116.93C117.15 54.6561 117.37 54.4321 117.37 54.2081V48.1601C117.37 46.4801 115.94 45.3601 114.73 45.3601C113.41 45.3601 112.53 45.9201 112.09 46.2561V45.5841H110C109.78 45.5841 109.45 45.8081 109.45 46.0321V54.7681H111.54C111.76 54.7681 112.09 54.5441 112.09 54.3201V47.9361H112.2Z" fill="white"/>
<path d="M94.93 45.248C93.61 45.248 92.62 45.808 91.85 46.368C91.3 45.472 90.31 45.248 89.65 45.248C88.33 45.248 87.45 45.808 87.01 46.144V45.472H84.92C84.7 45.472 84.48 45.696 84.48 45.92V54.656H86.57C86.79 54.656 87.12 54.432 87.12 54.208V47.936C87.23 47.824 88.11 46.928 88.88 46.928C89.43 46.928 89.76 47.6 89.76 48.384V54.656H91.85C92.07 54.656 92.29 54.432 92.29 54.208V47.936C92.4 47.824 93.28 46.928 94.05 46.928C94.6 46.928 94.93 47.6 94.93 48.384V54.656H97.02C97.24 54.656 97.46 54.432 97.46 54.208V48.16C97.46 46.368 96.14 45.248 94.93 45.248Z" fill="white"/>
</svg>
