<svg width="49" height="42" viewBox="0 0 49 42" fill="none" xmlns="http://www.w3.org/2000/svg">
<path d="M32.1176 35.2618H31.9676V35.4118V39.5294V39.6794H32.1176H33.3529C33.9523 39.6794 34.4382 40.1653 34.4382 40.7647C34.4382 41.3641 33.9523 41.85 33.3529 41.85H15.2353C14.6359 41.85 14.15 41.3641 14.15 40.7647C14.15 40.1653 14.6359 39.6794 15.2353 39.6794H16.4706H16.6206V39.5294V35.4118V35.2618H16.4706H4.52941C2.11073 35.2618 0.15 33.3011 0.15 30.8824V4.52941C0.15 2.11073 2.11073 0.15 4.52941 0.15H44.0588C46.4775 0.15 48.4382 2.11073 48.4382 4.52941V30.8824C48.4382 33.3011 46.4775 35.2618 44.0588 35.2618H32.1176ZM18.7912 39.5294V39.6794H18.9412H29.6471H29.7971V39.5294V35.4118V35.2618H29.6471H18.9412H18.7912V35.4118V39.5294ZM2.32059 24.7059V24.8559H2.47059H46.1176H46.2676V24.7059V4.52941C46.2676 3.30952 45.2787 2.32059 44.0588 2.32059H4.52941C3.30951 2.32059 2.32059 3.30952 2.32059 4.52941V24.7059ZM2.47059 27.0265H2.32059V27.1765V30.8824C2.32059 32.1022 3.30951 33.0912 4.52941 33.0912H44.0588C45.2787 33.0912 46.2676 32.1022 46.2676 30.8824V27.1765V27.0265H46.1176H2.47059ZM28.6116 19.7833L28.6116 19.7833C29.0076 16.6075 31.7169 14.15 35 14.15C38.2831 14.15 40.9924 16.6075 41.3884 19.7833C41.4213 20.0469 41.4382 20.3155 41.4382 20.5882V22.0853H39.1176H30.8824H28.5618V20.5882C28.5618 20.3155 28.5787 20.0469 28.6116 19.7833ZM30.8177 19.7349L30.7812 19.9147H30.9647H39.0353H39.2188L39.1823 19.7349C38.7868 17.7869 37.0649 16.3206 35 16.3206C32.9351 16.3206 31.2132 17.7869 30.8177 19.7349ZM22.7971 30.0588C22.7971 29.2358 23.4711 28.5618 24.2941 28.5618C25.1172 28.5618 25.7912 29.2358 25.7912 30.0588C25.7912 30.8819 25.1172 31.5559 24.2941 31.5559C23.4711 31.5559 22.7971 30.8819 22.7971 30.0588ZM35 10.8559C35.9925 10.8559 36.7971 10.0513 36.7971 9.05882C36.7971 8.06631 35.9925 7.26176 35 7.26176C34.0075 7.26176 33.2029 8.06631 33.2029 9.05882C33.2029 10.0513 34.0075 10.8559 35 10.8559ZM38.9676 9.05882C38.9676 11.2501 37.1912 13.0265 35 13.0265C32.8087 13.0265 31.0324 11.2501 31.0324 9.05882C31.0324 6.86757 32.8087 5.09118 35 5.09118C37.1912 5.09118 38.9676 6.86757 38.9676 9.05882ZM5.91471 8.64706C5.91471 8.04769 6.40063 7.56176 7 7.56176H23.4706C24.07 7.56176 24.5559 8.04769 24.5559 8.64706C24.5559 9.24643 24.07 9.73235 23.4706 9.73235H7C6.40063 9.73235 5.91471 9.24643 5.91471 8.64706ZM5.91471 13.5882C5.91471 12.9889 6.40063 12.5029 7 12.5029H23.4706C24.07 12.5029 24.5559 12.9889 24.5559 13.5882C24.5559 14.1876 24.07 14.6735 23.4706 14.6735H7C6.40063 14.6735 5.91471 14.1876 5.91471 13.5882ZM5.91471 18.5294C5.91471 17.93 6.40063 17.4441 7 17.4441H15.2353C15.8347 17.4441 16.3206 17.93 16.3206 18.5294C16.3206 19.1288 15.8347 19.6147 15.2353 19.6147H7C6.40063 19.6147 5.91471 19.1288 5.91471 18.5294Z" fill="#45DEB8" stroke="#01916D" stroke-width="0.3"/>
</svg>
