<svg width="60" height="60" viewBox="0 0 45 42" fill="none" xmlns="http://www.w3.org/2000/svg">
<path fill-rule="evenodd" clip-rule="evenodd" d="M9.11347 0.00126766C7.1535 0.00126766 5.5453 1.60944 5.5453 3.56944V21.0009V32.887C5.5453 33.9477 7.13635 33.9477 7.13635 32.887V21.0009V3.56944C7.13635 2.46593 8.00999 1.59184 9.11347 1.59232L37.9899 1.60439C37.9899 1.60439 37.2678 2.55447 37.2377 3.5455V38.4323C37.2377 39.5357 36.3641 40.4211 35.2606 40.4211C34.1571 40.4211 33.2835 39.5357 33.2835 38.4323V35.6596C33.279 35.2242 32.9237 34.8736 32.4879 34.8752H0.795528C0.360023 34.8736 0.00475289 35.2238 0 35.6591V38.4317C0 40.3917 1.60821 41.9999 3.56818 41.9999H35.167C35.8557 42.0059 36.5913 41.7628 36.8995 41.5771C38.0769 40.9316 38.7927 39.5833 38.8288 38.429V3.58955C38.8577 2.63501 39.6824 1.58945 40.8059 1.58903C41.9093 1.58903 42.7947 2.46264 42.7947 3.56615V6.3388H40.8059C39.6602 6.24176 39.6602 8.01495 40.8059 7.91816L43.5785 7.93004C44.0177 7.93171 44.3745 7.57612 44.3741 7.13689V3.56871C44.3741 2.05214 43.5565 0.801234 42.2135 0.288623C41.7717 0.0957494 41.2552 -0.00844831 40.8059 0.000536472L9.11347 0.00126766ZM1.57936 36.4551H31.6924V38.4323C31.6924 39.2098 31.8006 39.9247 32.4067 40.5423L3.56818 40.4211C2.46471 40.4165 1.57936 39.5357 1.57936 38.4323V36.4551Z" fill="grey"/>
<path d="M12.4917 5.94952L12.5028 7.364C11.525 7.7773 10.9457 8.85986 11.1243 9.95403C11.3128 11.1081 12.307 11.9634 13.4374 11.9162C13.7176 11.9521 13.952 12.175 14.0067 12.5099C14.0698 12.8962 13.8506 13.2445 13.524 13.3398C13.1973 13.4362 12.8686 13.2685 12.7372 12.9049L11.2453 13.4763C11.4716 14.1008 11.9393 14.5762 12.5028 14.8193L12.4917 16.2501H14.0837L14.0948 14.8687C15.1348 14.4901 15.7615 13.3701 15.5767 12.2381C15.3882 11.0842 14.3943 10.2287 13.2641 10.2759C12.9836 10.24 12.7491 10.0173 12.6943 9.68185C12.6312 9.2955 12.8504 8.94689 13.177 8.85177C13.5037 8.75533 13.8323 8.92311 13.9638 9.28609L15.4557 8.71467C15.2157 8.05238 14.7042 7.55719 14.0948 7.32981L14.0837 5.94824L12.4917 5.94952Z" fill="grey"/>
<path d="M33.28 15.0618H19.0166V16.6466H33.28V15.0618Z" fill="grey"/>
<path d="M33.2808 19.8164H11.0934V21.4012H33.2808V19.8164Z" fill="grey"/>
<path d="M33.2808 29.3254H28.5264V30.9103H33.2808V29.3254Z" fill="grey"/>
<path d="M33.28 10.3074H19.0166V11.892H33.28V10.3074Z" fill="grey"/>
<path d="M33.28 5.55322H19.0166V7.13806H33.28V5.55322Z" fill="grey"/>
<path d="M33.2808 24.5708H11.0934V26.1556H33.2808V24.5708Z" fill="grey"/>
</svg>
