<svg width="684" height="136" viewBox="0 0 684 136" fill="none" xmlns="http://www.w3.org/2000/svg">
<rect width="684" height="136" fill="#EDF8FF"/>
<path fill-rule="evenodd" clip-rule="evenodd" d="M342.224 0C333.575 55.517 285.555 98 227.612 98C169.669 98 121.649 55.517 113 0H342.224Z" fill="#DDEEEA"/>
<path fill-rule="evenodd" clip-rule="evenodd" d="M620.715 136H316C336.694 71.6033 397.084 25 468.357 25C539.631 25 600.02 71.6033 620.715 136Z" fill="#DDEEEA"/>
<path fill-rule="evenodd" clip-rule="evenodd" d="M432.027 52.4364C424.314 56.8898 421.706 66.814 426.203 74.6026L461.65 136H482.702L609.118 63.0141L615.78 74.5526C617.824 78.0929 616.638 82.6039 613.132 84.6281L524.153 136H541.918L573.134 117.977L580.536 130.798L571.526 136H589.291L596.405 131.893C598.508 130.678 599.22 127.972 597.993 125.847C596.767 123.723 594.067 122.986 591.964 124.2L588.155 126.4L580.753 113.579L617.573 92.3205C625.287 87.8671 627.894 77.943 623.398 70.1543L582.894 0H572.737L604.677 55.3217L470.09 133.025L433.821 70.2043C431.777 66.6641 432.962 62.153 436.468 60.1288L540.614 0H522.85L432.027 52.4364ZM541.927 113.772C540.299 110.952 541.252 107.325 544.045 105.712C546.839 104.099 550.456 105.087 552.085 107.908C553.713 110.729 552.76 114.356 549.967 115.968C547.174 117.581 543.556 116.593 541.927 113.772ZM545.229 31.5242C548.034 29.9047 548.982 26.2961 547.346 23.4637C545.711 20.6314 542.112 19.6483 539.307 21.2677C536.502 22.8872 535.554 26.4958 537.189 29.3281C538.824 32.1605 542.424 33.1436 545.229 31.5242ZM549.67 39.2165C556.682 35.168 559.053 26.146 554.965 19.0654C550.877 11.9849 541.878 9.52688 534.866 13.5754C527.854 17.6239 525.483 26.6459 529.571 33.7264C533.659 40.807 542.658 43.265 549.67 39.2165ZM583.308 50.5647C582.807 49.6963 582.259 48.8714 581.671 48.0914C574.579 38.6941 561.51 35.7995 551.15 41.7806C540.791 47.7617 536.763 60.5273 541.355 71.3675C541.736 72.2675 542.177 73.1539 542.678 74.0224L545.639 79.1506L553.257 74.7523L578.651 60.0913L586.269 55.693L583.308 50.5647ZM555.591 49.473C549.449 53.0195 546.868 60.3823 549.07 66.9133L573.956 52.5455C569.401 47.3729 561.734 45.9265 555.591 49.473ZM451.38 77.1605C450.154 75.0364 450.865 72.3297 452.969 71.1152L503.756 41.7931C505.86 40.5786 508.559 41.316 509.786 43.4402C511.012 45.5643 510.301 48.271 508.197 49.4855L457.41 78.8075C455.306 80.022 452.607 79.2846 451.38 77.1605ZM461.851 86.4999C459.747 87.7144 459.036 90.4211 460.263 92.5452C461.489 94.6693 464.189 95.4067 466.292 94.1922L517.079 64.8702C519.183 63.6556 519.894 60.949 518.668 58.8248C517.442 56.7007 514.742 55.9633 512.638 57.1778L461.851 86.4999ZM469.145 107.93C467.919 105.806 468.63 103.099 470.733 101.885L496.127 87.2235C498.231 86.009 500.93 86.7464 502.157 88.8705C503.383 90.9947 502.672 93.7013 500.568 94.9159L475.175 109.577C473.071 110.791 470.371 110.054 469.145 107.93Z" fill="#0B6297" fill-opacity="0.26"/>
</svg>